<?xml version="1.0" standalone="no"?>
<!DOCTYPE svg PUBLIC "-//W3C//DTD SVG 20010904//EN"
 "http://www.w3.org/TR/2001/REC-SVG-20010904/DTD/svg10.dtd">
<svg version="1.0" xmlns="http://www.w3.org/2000/svg"
 width="1024.000000pt" height="1024.000000pt" viewBox="0 0 1024.000000 1024.000000"
 preserveAspectRatio="xMidYMid meet">
<metadata>
Created by potrace 1.14, written by Peter Selinger 2001-2017
</metadata>
<g transform="translate(0.000000,1024.000000) scale(0.100000,-0.100000)"
fill="#000000" stroke="none">
<path d="M3020 7450 c-18 -18 -19 -43 -19 -594 0 -317 2 -576 4 -576 7 0 78
71 102 103 30 39 120 141 173 196 25 26 56 62 70 79 14 18 31 32 38 32 11 0
16 13 13 33 -1 4 7 7 16 5 10 -2 17 2 15 10 -1 7 9 24 22 37 14 14 29 33 35
42 9 17 11 17 24 -1 8 -10 18 -16 24 -13 5 3 17 -3 26 -14 13 -15 14 -19 3
-19 -8 0 -21 -3 -29 -6 -10 -3 -18 2 -22 15 -5 17 -9 18 -20 8 -12 -11 -11
-20 3 -23 27 -6 52 -18 52 -25 0 -5 -8 -5 -17 -2 -12 5 -15 2 -10 -9 6 -17 -8
-19 -30 -5 -18 11 -16 -1 2 -19 22 -22 18 -36 -7 -30 -13 3 -17 3 -10 0 6 -3
12 -13 12 -22 0 -13 -2 -14 -9 -4 -6 10 -10 7 -15 -12 -4 -17 -11 -23 -22 -19
-8 3 -14 2 -13 -3 4 -25 -6 -43 -48 -89 -26 -27 -50 -49 -54 -48 -5 2 -6 -4
-3 -12 4 -8 -1 -17 -10 -21 -9 -3 -16 -11 -16 -18 0 -6 -16 -28 -35 -49 -19
-21 -35 -42 -35 -48 0 -5 -4 -9 -10 -9 -5 0 -10 -7 -10 -15 0 -7 -6 -18 -12
-22 -13 -8 -35 -34 -145 -171 l-52 -65 1 -461 c0 -253 3 -469 7 -479 6 -17 18
-8 81 64 41 46 77 86 82 87 4 2 8 9 8 16 0 6 9 18 21 26 11 8 27 26 34 40 8
14 24 36 37 50 30 33 189 218 214 249 10 14 31 37 47 52 15 15 27 31 27 36 0
5 8 16 18 24 27 25 62 68 62 78 0 5 8 12 18 15 9 3 23 19 30 36 8 16 20 30 28
30 9 0 12 5 9 10 -3 6 1 13 9 16 9 3 16 11 16 16 0 6 17 26 38 46 20 19 30 31
22 27 -8 -4 -3 3 11 16 15 13 29 32 33 42 3 11 11 15 17 11 8 -4 9 -3 5 4 -4
7 -2 12 4 12 6 0 8 5 5 10 -3 6 0 10 8 10 8 0 17 9 20 20 3 11 13 20 22 20 9
0 15 5 13 11 -2 6 20 36 49 67 43 44 53 61 54 91 1 20 2 56 3 81 l1 45 560 -1
c613 0 745 -5 845 -34 25 -7 54 -14 65 -15 11 -1 20 -3 20 -4 0 -2 9 -4 20 -6
10 -2 28 -8 40 -13 11 -6 49 -20 85 -32 255 -88 526 -288 695 -513 293 -389
393 -917 264 -1387 -63 -228 -192 -444 -374 -625 -211 -211 -434 -324 -735
-371 -89 -14 -207 -17 -755 -19 -357 -1 -669 1 -692 3 l-42 4 -3 130 -3 130
-170 -198 c-93 -108 -183 -213 -200 -233 -16 -20 -70 -83 -120 -141 -50 -58
-151 -177 -225 -265 -73 -88 -150 -178 -169 -200 -143 -162 -167 -195 -158
-218 5 -15 50 -17 414 -17 486 -1 427 -2 491 2 28 2 52 -1 52 -5 0 -5 5 -5 11
-1 6 3 376 8 823 9 446 2 820 5 831 8 11 2 52 7 90 12 80 9 75 8 175 30 41 9
80 17 85 18 6 2 16 6 23 11 7 4 15 6 18 3 6 -6 175 47 249 78 146 61 333 159
397 208 13 10 33 23 44 30 107 60 335 255 397 340 16 20 35 37 43 37 7 0 14 5
14 11 0 6 33 52 73 103 127 159 168 217 161 228 -4 6 -3 8 3 5 6 -4 20 13 32
38 12 25 25 45 30 45 10 0 32 55 25 64 -2 3 -1 4 3 1 9 -7 32 27 33 47 0 9 3
18 8 20 13 5 52 89 46 99 -3 5 -1 9 4 9 9 0 18 21 27 59 2 8 9 18 17 22 7 4 9
11 5 15 -4 4 -1 14 6 23 8 9 19 36 26 61 6 25 16 54 21 65 27 64 84 320 83
378 0 15 3 27 8 27 8 0 10 15 12 127 1 40 4 73 7 73 10 0 13 217 4 340 -4 52
-7 109 -7 127 0 18 -4 30 -9 27 -4 -3 -5 2 -2 11 9 22 -4 67 -17 59 -8 -4 -8
-1 -1 12 11 22 11 22 -17 123 -11 41 -18 78 -15 83 3 4 0 17 -7 29 -6 12 -12
31 -14 43 -4 30 -52 172 -70 206 -8 16 -16 41 -17 54 -1 14 -7 27 -13 30 -6 2
-17 23 -25 47 -19 60 -50 110 -62 103 -6 -4 -5 3 1 15 8 14 8 21 1 21 -5 0
-10 7 -10 15 0 8 -4 15 -10 15 -5 0 -10 9 -10 20 0 11 -6 20 -14 20 -12 0 -30
34 -27 53 1 4 -10 19 -25 32 -14 13 -23 29 -19 34 3 6 1 11 -4 11 -6 0 -10 6
-8 13 1 7 -6 11 -17 9 -14 -3 -17 1 -13 13 4 9 -1 22 -13 32 -11 10 -20 23
-20 31 0 7 -7 15 -15 18 -8 4 -15 12 -15 20 0 8 -4 14 -10 14 -5 0 -10 5 -10
12 0 7 -10 22 -23 33 -12 11 -44 46 -71 77 -26 32 -52 55 -57 52 -5 -3 -7 1
-4 8 3 7 -13 28 -35 47 -22 19 -40 39 -40 46 0 7 -11 16 -25 19 -14 4 -24 10
-21 15 5 8 -42 58 -50 54 -2 -2 -5 0 -5 5 -1 4 -10 13 -20 20 -11 7 -19 20
-19 28 0 8 -4 15 -10 15 -5 1 -15 2 -20 3 -6 0 -15 8 -20 16 -5 8 -10 11 -10
6 0 -5 -9 2 -21 15 -12 13 -25 23 -30 22 -5 -2 -9 3 -9 11 0 8 -13 20 -30 28
-16 7 -30 16 -30 20 0 5 -7 8 -15 8 -8 0 -15 7 -15 15 0 8 -7 15 -15 15 -9 0
-18 7 -21 15 -4 8 -12 15 -19 15 -8 0 -27 12 -44 26 -17 14 -35 23 -41 19 -5
-3 -10 0 -10 7 0 8 -19 24 -42 35 -24 11 -87 43 -140 71 -54 28 -131 64 -170
80 -208 87 -549 164 -793 181 -71 5 -633 9 -1248 9 -1084 1 -1118 1 -1137 -18z
m2225 -391 c210 -3 326 -16 519 -55 393 -79 765 -283 1066 -584 299 -298 493
-641 586 -1040 43 -182 54 -277 54 -463 0 -562 -183 -1026 -560 -1421 -263
-274 -561 -450 -923 -542 -219 -55 -241 -57 -967 -61 -382 -3 -691 -1 -710 4
-47 12 -70 51 -51 86 8 14 25 29 40 33 14 4 296 8 625 10 521 2 720 7 801 20
60 9 111 18 115 19 3 1 24 5 48 9 23 4 40 12 37 17 -4 5 2 6 11 2 12 -4 15 -3
10 5 -5 8 -2 10 8 6 20 -8 116 15 116 28 0 5 5 6 10 3 6 -4 17 -1 25 5 8 7 15
10 15 7 0 -3 13 -1 30 4 16 6 27 15 24 20 -3 5 1 6 9 4 17 -7 87 22 87 36 0 5
4 7 10 4 12 -7 70 22 70 35 0 6 9 10 21 10 15 0 19 5 15 16 -4 12 -1 14 14 9
15 -5 20 -2 20 12 0 15 2 16 10 3 8 -13 10 -13 10 2 0 10 6 15 13 13 18 -7 38
9 40 33 1 17 4 19 21 10 16 -9 18 -8 13 6 -4 9 -2 16 3 16 6 0 10 -5 10 -11 0
-14 24 11 33 35 6 14 11 16 19 8 14 -14 62 33 52 50 -5 8 -2 9 9 5 12 -4 17
-1 18 11 0 10 3 12 6 4 3 -8 17 0 40 23 19 19 32 39 29 44 -4 5 -2 13 4 16 6
4 10 3 9 -2 -5 -26 6 -19 54 33 28 32 64 70 80 83 15 14 27 29 27 33 0 4 14
22 30 40 97 105 243 380 304 572 75 232 106 491 87 724 -45 540 -316 1045
-756 1407 -230 189 -453 306 -742 389 -239 69 -243 69 -936 75 -607 6 -629 7
-643 25 -36 50 3 98 90 113 45 7 449 8 891 2z m-1535 -112 c0 -9 -2 -9 -8 1
-6 9 -14 7 -30 -9 -12 -11 -20 -24 -17 -30 4 -5 -2 -9 -13 -9 -13 0 -27 -15
-43 -44 -26 -50 -20 -71 10 -35 11 13 20 19 21 13 0 -6 -9 -19 -19 -28 -18
-16 -21 -17 -45 -1 -14 9 -30 14 -36 10 -6 -3 -10 3 -10 15 0 14 4 19 13 13
25 -16 42 -12 19 5 -22 17 -22 18 -3 34 16 14 20 14 25 2 3 -8 10 -14 16 -14
12 0 14 26 3 33 -5 2 -3 3 2 2 21 -5 55 15 49 28 -3 9 3 17 16 20 14 3 19 10
15 17 -6 9 -2 9 14 1 11 -7 21 -17 21 -24z m-100 -17 c0 -5 -4 -10 -10 -10 -5
0 -10 5 -10 10 0 6 5 10 10 10 6 0 10 -4 10 -10z m3005 -3490 c3 -5 1 -10 -4
-10 -6 0 -11 5 -11 10 0 6 2 10 4 10 3 0 8 -4 11 -10z m-135 -100 c0 -5 -2
-10 -4 -10 -3 0 -8 5 -11 10 -3 6 -1 10 4 10 6 0 11 -4 11 -10z m-190 -100 c0
-5 -2 -10 -4 -10 -3 0 -8 5 -11 10 -3 6 -1 10 4 10 6 0 11 -4 11 -10z"/>
<path d="M3375 6550 c4 -6 11 -8 16 -5 14 9 11 15 -7 15 -8 0 -12 -5 -9 -10z"/>
<path d="M3954 5962 c-97 -107 -407 -469 -579 -677 -60 -71 -163 -193 -230
-270 -67 -78 -127 -150 -133 -162 -14 -26 -15 -680 0 -689 5 -3 5 -11 0 -17
-4 -7 -7 -18 -6 -24 1 -7 2 -27 3 -45 1 -30 1 -31 21 -13 14 12 18 25 14 41
-6 24 2 29 35 25 7 -2 10 2 6 8 -3 6 1 11 9 11 9 0 16 3 16 8 0 4 18 26 40 50
22 24 38 47 35 53 -4 5 2 9 12 9 15 0 16 2 3 10 -13 8 -12 10 4 10 12 0 16 5
12 16 -3 9 -2 12 5 8 16 -10 54 37 51 63 -2 13 1 23 7 23 6 0 7 -8 4 -17 -6
-16 -5 -16 10 -5 8 8 13 20 10 28 -4 10 0 12 11 8 12 -5 15 -2 9 12 -5 13 -3
15 7 9 9 -5 11 -4 6 3 -4 7 -1 12 7 12 22 0 41 27 25 33 -8 4 -7 6 5 6 9 1 17
6 17 12 0 5 5 7 10 4 6 -3 10 1 10 9 0 9 4 16 8 16 5 0 9 7 9 15 0 9 -6 14
-14 11 -8 -3 -11 -1 -8 4 9 14 32 12 39 -2 4 -7 4 -3 2 9 -3 16 0 20 12 16 12
-5 14 -1 8 20 -6 27 8 38 17 15 3 -8 6 -7 6 4 1 9 6 20 13 24 7 5 9 2 4 -7 -4
-8 2 -3 13 10 12 13 21 30 21 38 0 7 7 13 16 11 10 -2 19 3 22 11 3 9 0 11 -9
6 -8 -4 3 7 24 24 41 36 45 47 20 54 -17 4 -17 5 0 6 10 0 15 6 12 11 -3 6 -2
10 4 10 5 0 12 -8 14 -17 3 -10 6 -2 7 17 1 29 3 32 10 15 6 -13 9 -15 9 -5 1
8 10 21 20 27 13 8 18 19 14 35 -4 18 -3 20 6 8 10 -13 15 -8 12 12 0 4 5 5
12 2 17 -6 42 40 31 58 -6 10 -5 11 7 2 11 -9 18 -7 32 6 17 17 17 18 -3 23
-20 5 -29 27 -10 27 6 0 10 -4 10 -10 0 -5 5 -10 11 -10 6 0 9 6 6 14 -4 10 0
12 15 8 15 -3 19 -1 14 6 -4 7 0 15 9 18 10 4 13 13 10 25 -4 11 -2 19 4 19 5
0 12 -8 14 -17 4 -17 5 -17 6 0 0 9 6 17 11 17 6 0 10 5 10 11 0 6 -7 9 -15 5
-8 -3 -15 0 -15 5 0 6 9 9 20 6 11 -3 23 -1 26 4 3 5 0 9 -5 9 -6 0 -11 4 -11
10 0 5 7 7 15 4 8 -4 15 -1 15 6 0 6 5 8 10 5 6 -4 19 12 29 35 11 24 21 36
24 28 2 -7 8 -2 12 15 4 15 12 27 19 27 7 0 12 18 13 43 4 88 3 740 -1 744 -2
2 -44 -40 -92 -95z m46 -688 c0 -8 -19 -13 -24 -6 -3 5 1 9 9 9 8 0 15 -2 15
-3z m-50 -54 c0 -5 -8 -10 -17 -10 -15 0 -16 2 -3 10 19 12 20 12 20 0z m-3
-26 c-3 -3 -12 -4 -19 -1 -8 3 -5 6 6 6 11 1 17 -2 13 -5z m-107 -78 c0 -2 -7
-7 -16 -10 -8 -3 -12 -2 -9 4 6 10 25 14 25 6z m-110 -156 c0 -5 -5 -10 -11
-10 -5 0 -8 -4 -5 -8 2 -4 -4 -8 -14 -8 -18 0 -18 2 -3 18 18 20 33 23 33 8z
m-113 -102 c-3 -8 -6 -5 -6 6 -1 11 2 17 5 13 3 -3 4 -12 1 -19z m-76 -121
c-10 -9 -11 -8 -5 6 3 10 9 15 12 12 3 -3 0 -11 -7 -18z m-124 -112 c0 -8 -4
-12 -9 -9 -5 3 -6 10 -3 15 9 13 12 11 12 -6z m-17 -94 c0 -4 -6 -8 -14 -8 -8
0 -12 6 -9 14 5 13 23 9 23 -6z m-80 -71 c0 -5 -4 -10 -10 -10 -5 0 -10 5 -10
10 0 6 5 10 10 10 6 0 10 -4 10 -10z m-78 -126 c-7 -12 -11 -13 -17 -4 -4 7
-2 16 6 21 18 11 23 4 11 -17z m-124 -120 c6 3 14 1 18 -5 4 -8 3 -9 -4 -5 -7
4 -12 2 -12 -5 0 -8 -3 -9 -13 0 -8 6 -17 8 -21 4 -4 -4 -4 1 0 11 5 13 9 14
14 6 4 -7 12 -10 18 -6z"/>
<path d="M3979 4958 c-65 -72 -206 -237 -440 -513 -244 -290 -321 -381 -342
-405 -12 -14 -55 -63 -95 -110 -39 -47 -78 -91 -86 -97 -13 -11 -15 -91 -15
-540 0 -291 4 -535 7 -544 7 -16 73 53 220 230 20 25 47 55 60 68 12 13 22 28
22 33 0 6 4 10 9 10 5 0 25 23 45 50 20 28 47 60 61 72 13 11 22 25 19 30 -3
4 0 8 6 8 6 0 8 5 5 10 -4 6 -1 9 7 8 7 -2 12 3 10 10 -1 6 4 12 12 12 8 0 17
8 20 18 3 9 24 37 46 61 22 24 40 48 40 53 0 5 5 6 10 3 6 -3 10 -1 10 5 0 7
10 20 23 31 16 14 18 19 7 20 -8 0 -5 4 8 7 13 4 23 11 22 16 -1 5 6 13 15 18
13 8 14 12 3 26 -11 13 -10 15 8 10 14 -4 25 1 35 16 7 11 12 24 11 29 -1 4 5
7 14 7 8 0 12 5 9 10 -3 6 1 10 10 10 9 0 13 5 10 10 -3 6 1 10 10 10 12 0 15
5 11 17 -4 10 -4 15 -1 11 8 -8 45 28 45 43 0 5 5 7 12 3 7 -5 9 0 6 14 -4 15
-2 19 8 15 8 -3 17 3 21 13 4 10 22 34 41 52 22 23 31 40 27 51 -5 12 -3 13 6
4 9 -9 15 -9 25 2 8 7 14 17 14 22 0 4 9 14 20 21 22 13 27 52 8 52 -10 0 -10
2 0 8 10 7 12 119 10 531 l-3 522 -66 -73z"/>
<path d="M3055 4110 c3 -5 8 -10 11 -10 2 0 4 5 4 10 0 6 -5 10 -11 10 -5 0
-7 -4 -4 -10z"/>
</g>
</svg>
